#include <stdint.h>
const uint8_t midifile[] = {
        0x4D, 0x54, 0x68, 0x64, 0x00, 0x00, 0x00, 0x06, 0x00, 0x01, 0x00, 0x03, 0x04, 0x00, 0x4D, 0x54,
        0x72, 0x6B, 0x00, 0x00, 0x01, 0x93, 0x00, 0xFF, 0x54, 0x05, 0x00, 0x00, 0x00, 0x00, 0x00, 0x00,
        0xFF, 0x58, 0x04, 0x04, 0x02, 0x18, 0x08, 0x00, 0xFF, 0x59, 0x02, 0x00, 0x00, 0x00, 0xFF, 0x51,
        0x03, 0x07, 0xA1, 0x1F, 0x00, 0xFF, 0x51, 0x03, 0x07, 0xA1, 0x23, 0x90, 0x00, 0xFF, 0x51, 0x03,
        0x07, 0xA1, 0x23, 0x82, 0x00, 0xFF, 0x51, 0x03, 0x07, 0xB2, 0x72, 0x82, 0x00, 0xFF, 0x51, 0x03,
        0x07, 0xBA, 0x40, 0x82, 0x00, 0xFF, 0x51, 0x03, 0x07, 0xC3, 0x19, 0x82, 0x00, 0xFF, 0x51, 0x03,
        0x07, 0xD4, 0x05, 0x82, 0x00, 0xFF, 0x51, 0x03, 0x07, 0xDC, 0x15, 0x82, 0x00, 0xFF, 0x51, 0x03,
        0x07, 0xE5, 0x3C, 0x82, 0x00, 0xFF, 0x51, 0x03, 0x07, 0xED, 0x6F, 0x84, 0x00, 0xFF, 0x51, 0x03,
        0x07, 0xA1, 0x23, 0xAE, 0x00, 0xFF, 0x51, 0x03, 0x07, 0xA1, 0x23, 0x82, 0x00, 0xFF, 0x51, 0x03,
        0x07, 0xB2, 0x72, 0x82, 0x00, 0xFF, 0x51, 0x03, 0x07, 0xBA, 0x40, 0x82, 0x00, 0xFF, 0x51, 0x03,
        0x07, 0xC3, 0x19, 0x82, 0x00, 0xFF, 0x51, 0x03, 0x07, 0xD4, 0x05, 0x82, 0x00, 0xFF, 0x51, 0x03,
        0x07, 0xDC, 0x15, 0x82, 0x00, 0xFF, 0x51, 0x03, 0x07, 0xE5, 0x3C, 0x82, 0x00, 0xFF, 0x51, 0x03,
        0x07, 0xED, 0x6F, 0x84, 0x00, 0xFF, 0x51, 0x03, 0x07, 0xA1, 0x23, 0xAE, 0x00, 0xFF, 0x51, 0x03,
        0x07, 0xA1, 0x23, 0x82, 0x00, 0xFF, 0x51, 0x03, 0x07, 0xA9, 0xC2, 0x82, 0x00, 0xFF, 0x51, 0x03,
        0x07, 0xB2, 0x72, 0x82, 0x00, 0xFF, 0x51, 0x03, 0x07, 0xB2, 0x72, 0x82, 0x00, 0xFF, 0x51, 0x03,
        0x07, 0xBA, 0x40, 0x82, 0x00, 0xFF, 0x51, 0x03, 0x07, 0xBA, 0x40, 0x82, 0x00, 0xFF, 0x51, 0x03,
        0x07, 0xC3, 0x19, 0x82, 0x00, 0xFF, 0x51, 0x03, 0x07, 0xCB, 0x06, 0x82, 0x00, 0xFF, 0x51, 0x03,
        0x07, 0xA1, 0x23, 0x81, 0x90, 0x00, 0xFF, 0x51, 0x03, 0x07, 0xA1, 0x23, 0x82, 0x00, 0xFF, 0x51,
        0x03, 0x07, 0xB2, 0x72, 0x82, 0x00, 0xFF, 0x51, 0x03, 0x07, 0xBA, 0x40, 0x82, 0x00, 0xFF, 0x51,
        0x03, 0x07, 0xC3, 0x19, 0x82, 0x00, 0xFF, 0x51, 0x03, 0x07, 0xD4, 0x05, 0x82, 0x00, 0xFF, 0x51,
        0x03, 0x07, 0xDC, 0x15, 0x82, 0x00, 0xFF, 0x51, 0x03, 0x07, 0xE5, 0x3C, 0x82, 0x00, 0xFF, 0x51,
        0x03, 0x07, 0xED, 0x6F, 0x84, 0x00, 0xFF, 0x51, 0x03, 0x07, 0xA1, 0x23, 0xAE, 0x00, 0xFF, 0x51,
        0x03, 0x07, 0xA1, 0x23, 0x82, 0x00, 0xFF, 0x51, 0x03, 0x07, 0xB2, 0x72, 0x82, 0x00, 0xFF, 0x51,
        0x03, 0x07, 0xBA, 0x40, 0x82, 0x00, 0xFF, 0x51, 0x03, 0x07, 0xC3, 0x19, 0x82, 0x00, 0xFF, 0x51,
        0x03, 0x07, 0xD4, 0x05, 0x82, 0x00, 0xFF, 0x51, 0x03, 0x07, 0xDC, 0x15, 0x82, 0x00, 0xFF, 0x51,
        0x03, 0x07, 0xE5, 0x3C, 0x82, 0x00, 0xFF, 0x51, 0x03, 0x07, 0xED, 0x6F, 0x84, 0x00, 0xFF, 0x51,
        0x03, 0x07, 0xA1, 0x23, 0xFE, 0x1E, 0xFF, 0x2F, 0x00, 0x4D, 0x54, 0x72, 0x6B, 0x00, 0x00, 0x04,
        0x48, 0x00, 0xFF, 0x09, 0x16, 0x53, 0x6D, 0x61, 0x72, 0x74, 0x4D, 0x75, 0x73, 0x69, 0x63, 0x20,
        0x53, 0x6F, 0x66, 0x74, 0x53, 0x79, 0x6E, 0x74, 0x68, 0x20, 0x31, 0x00, 0xFF, 0x03, 0x14, 0x41,
        0x63, 0x6F, 0x75, 0x73, 0x74, 0x69, 0x63, 0x20, 0x47, 0x72, 0x61, 0x6E, 0x64, 0x20, 0x50, 0x69,
        0x61, 0x6E, 0x6F, 0x00, 0xC0, 0x00, 0x00, 0xB0, 0x07, 0x65, 0x00, 0xB0, 0x0A, 0x40, 0x00, 0xB0,
        0x07, 0x6E, 0x03, 0xB0, 0x64, 0x00, 0x00, 0xB0, 0x65, 0x00, 0x01, 0xB0, 0x06, 0x0C, 0x01, 0xB0,
        0x26, 0x00, 0x05, 0x90, 0x47, 0x3D, 0x00, 0x90, 0x4C, 0x4B, 0x88, 0x13, 0x80, 0x47, 0x00, 0x00,
        0x80, 0x4C, 0x00, 0x01, 0x90, 0x44, 0x39, 0x00, 0x90, 0x47, 0x47, 0x83, 0x5A, 0x80, 0x44, 0x00,
        0x1E, 0x80, 0x47, 0x00, 0x01, 0x90, 0x45, 0x38, 0x00, 0x90, 0x48, 0x46, 0x83, 0x5F, 0x80, 0x45,
        0x00, 0x1E, 0x80, 0x48, 0x00, 0x01, 0x90, 0x47, 0x3B, 0x00, 0x90, 0x4A, 0x49, 0x83, 0x5F, 0x80,
        0x47, 0x00, 0x1E, 0x80, 0x4A, 0x00, 0x01, 0x90, 0x4C, 0x40, 0x81, 0x68, 0x80, 0x4C, 0x00, 0x10,
        0x90, 0x4A, 0x40, 0x81, 0x71, 0x80, 0x4A, 0x00, 0x10, 0x90, 0x45, 0x39, 0x00, 0x90, 0x48, 0x47,
        0x83, 0x5A, 0x80, 0x45, 0x00, 0x1E, 0x80, 0x48, 0x00, 0x01, 0x90, 0x44, 0x38, 0x00, 0x90, 0x47,
        0x46, 0x83, 0x5C, 0x80, 0x44, 0x00, 0x1E, 0x80, 0x47, 0x00, 0x05, 0x90, 0x40, 0x3D, 0x00, 0x90,
        0x45, 0x4B, 0x88, 0x19, 0x80, 0x40, 0x00, 0x00, 0x80, 0x45, 0x00, 0x01, 0x90, 0x40, 0x39, 0x00,
        0x90, 0x45, 0x47, 0x83, 0x5A, 0x80, 0x40, 0x00, 0x1E, 0x80, 0x45, 0x00, 0x01, 0x90, 0x45, 0x38,
        0x00, 0x90, 0x48, 0x46, 0x83, 0x5F, 0x80, 0x45, 0x00, 0x1E, 0x80, 0x48, 0x00, 0x01, 0x90, 0x48,
        0x3B, 0x00, 0x90, 0x4C, 0x49, 0x87, 0x76, 0x80, 0x48, 0x00, 0x00, 0x80, 0x4C, 0x00, 0x01, 0x90,
        0x47, 0x39, 0x00, 0x90, 0x4A, 0x47, 0x83, 0x5A, 0x80, 0x47, 0x00, 0x1E, 0x80, 0x4A, 0x00, 0x01,
        0x90, 0x45, 0x38, 0x00, 0x90, 0x48, 0x46, 0x83, 0x5C, 0x80, 0x45, 0x00, 0x1E, 0x80, 0x48, 0x00,
        0x05, 0x90, 0x47, 0x45, 0x00, 0x90, 0x44, 0x45, 0x83, 0x7F, 0x80, 0x44, 0x00, 0x1F, 0x90, 0x40,
        0x40, 0x83, 0x5D, 0x80, 0x40, 0x00, 0x1F, 0x90, 0x44, 0x41, 0x83, 0x5A, 0x80, 0x44, 0x00, 0x1E,
        0x80, 0x47, 0x00, 0x01, 0x90, 0x48, 0x40, 0x00, 0x90, 0x45, 0x40, 0x83, 0x5F, 0x80, 0x48, 0x00,
        0x00, 0x80, 0x45, 0x00, 0x1F, 0x90, 0x47, 0x3B, 0x00, 0x90, 0x4A, 0x49, 0x87, 0x76, 0x80, 0x47,
        0x00, 0x00, 0x80, 0x4A, 0x00, 0x01, 0x90, 0x48, 0x39, 0x00, 0x90, 0x4C, 0x47, 0x87, 0x73, 0x80,
        0x48, 0x00, 0x00, 0x80, 0x4C, 0x00, 0x05, 0x90, 0x45, 0x3D, 0x00, 0x90, 0x48, 0x4B, 0x88, 0x19,
        0x80, 0x45, 0x00, 0x00, 0x80, 0x48, 0x00, 0x01, 0x90, 0x40, 0x39, 0x00, 0x90, 0x45, 0x47, 0x87,
        0x76, 0x80, 0x40, 0x00, 0x00, 0x80, 0x45, 0x00, 0x01, 0x90, 0x40, 0x3B, 0x00, 0x90, 0x45, 0x49,
        0x8F, 0x6A, 0x80, 0x40, 0x00, 0x00, 0x80, 0x45, 0x00, 0x84, 0x23, 0x90, 0x41, 0x38, 0x00, 0x90,
        0x4A, 0x46, 0x87, 0x74, 0x80, 0x41, 0x00, 0x00, 0x80, 0x4A, 0x00, 0x01, 0x90, 0x45, 0x38, 0x00,
        0x90, 0x4D, 0x46, 0x83, 0x5F, 0x80, 0x45, 0x00, 0x1E, 0x80, 0x4D, 0x00, 0x01, 0x90, 0x51, 0x43,
        0x00, 0x90, 0x48, 0x43, 0x83, 0x7D, 0x80, 0x48, 0x00, 0x01, 0x90, 0x48, 0x34, 0x81, 0x77, 0x80,
        0x48, 0x00, 0x01, 0x90, 0x48, 0x34, 0x82, 0x00, 0x80, 0x51, 0x00, 0x01, 0x90, 0x47, 0x39, 0x00,
        0x90, 0x4F, 0x47, 0x0E, 0x80, 0x48, 0x00, 0x83, 0x4C, 0x80, 0x47, 0x00, 0x1E, 0x80, 0x4F, 0x00,
        0x01, 0x90, 0x45, 0x38, 0x00, 0x90, 0x4D, 0x46, 0x83, 0x5C, 0x80, 0x45, 0x00, 0x1E, 0x80, 0x4D,
        0x00, 0x05, 0x90, 0x43, 0x3D, 0x00, 0x90, 0x4C, 0x4B, 0x8C, 0x12, 0x80, 0x43, 0x00, 0x00, 0x80,
        0x4C, 0x00, 0x01, 0x90, 0x40, 0x38, 0x00, 0x90, 0x48, 0x46, 0x83, 0x5F, 0x80, 0x40, 0x00, 0x1E,
        0x80, 0x48, 0x00, 0x01, 0x90, 0x4C, 0x43, 0x00, 0x90, 0x43, 0x43, 0x83, 0x5F, 0x80, 0x43, 0x00,
        0x1F, 0x90, 0x45, 0x40, 0x81, 0x68, 0x80, 0x45, 0x00, 0x10, 0x90, 0x43, 0x40, 0x81, 0x71, 0x80,
        0x43, 0x00, 0x0F, 0x80, 0x4C, 0x00, 0x01, 0x90, 0x41, 0x39, 0x00, 0x90, 0x4A, 0x47, 0x83, 0x5A,
        0x80, 0x41, 0x00, 0x1E, 0x80, 0x4A, 0x00, 0x01, 0x90, 0x40, 0x38, 0x00, 0x90, 0x48, 0x46, 0x83,
        0x5C, 0x80, 0x40, 0x00, 0x1E, 0x80, 0x48, 0x00, 0x05, 0x90, 0x47, 0x45, 0x00, 0x90, 0x44, 0x45,
        0x83, 0x7F, 0x80, 0x44, 0x00, 0x1F, 0x90, 0x40, 0x40, 0x83, 0x5D, 0x80, 0x40, 0x00, 0x1E, 0x80,
        0x47, 0x00, 0x01, 0x90, 0x44, 0x39, 0x00, 0x90, 0x47, 0x47, 0x83, 0x5A, 0x80, 0x44, 0x00, 0x1E,
        0x80, 0x47, 0x00, 0x01, 0x90, 0x45, 0x38, 0x00, 0x90, 0x48, 0x46, 0x83, 0x5F, 0x80, 0x45, 0x00,
        0x1E, 0x80, 0x48, 0x00, 0x01, 0x90, 0x4A, 0x43, 0x00, 0x90, 0x47, 0x43, 0x83, 0x5F, 0x80, 0x47,
        0x00, 0x1F, 0x90, 0x44, 0x40, 0x83, 0x5A, 0x80, 0x44, 0x00, 0x1E, 0x80, 0x4A, 0x00, 0x01, 0x90,
        0x4C, 0x41, 0x00, 0x90, 0x48, 0x41, 0x83, 0x5A, 0x80, 0x48, 0x00, 0x1F, 0x90, 0x44, 0x40, 0x83,
        0x5C, 0x80, 0x44, 0x00, 0x1E, 0x80, 0x4C, 0x00, 0x05, 0x90, 0x48, 0x45, 0x00, 0x90, 0x45, 0x45,
        0x83, 0x7F, 0x80, 0x45, 0x00, 0x1F, 0x90, 0x40, 0x40, 0x83, 0x5D, 0x80, 0x40, 0x00, 0x1E, 0x80,
        0x48, 0x00, 0x01, 0x90, 0x40, 0x39, 0x00, 0x90, 0x45, 0x43, 0x87, 0x76, 0x80, 0x40, 0x00, 0x00,
        0x80, 0x45, 0x00, 0x01, 0x90, 0x40, 0x3B, 0x00, 0x90, 0x45, 0x49, 0x87, 0x76, 0x80, 0x40, 0x00,
        0x00, 0x80, 0x45, 0x00, 0x87, 0x79, 0x90, 0x3C, 0x3D, 0x00, 0x90, 0x40, 0x4B, 0x90, 0x10, 0x80,
        0x3C, 0x00, 0x00, 0x80, 0x40, 0x00, 0x01, 0x90, 0x39, 0x3B, 0x00, 0x90, 0x3C, 0x49, 0x8F, 0x6A,
        0x80, 0x39, 0x00, 0x00, 0x80, 0x3C, 0x00, 0x05, 0x90, 0x3B, 0x3D, 0x00, 0x90, 0x3E, 0x4B, 0x90,
        0x10, 0x80, 0x3B, 0x00, 0x00, 0x80, 0x3E, 0x00, 0x01, 0x90, 0x38, 0x3B, 0x00, 0x90, 0x3B, 0x49,
        0x8F, 0x6A, 0x80, 0x38, 0x00, 0x00, 0x80, 0x3B, 0x00, 0x05, 0x90, 0x39, 0x3D, 0x00, 0x90, 0x3C,
        0x4B, 0x90, 0x10, 0x80, 0x39, 0x00, 0x00, 0x80, 0x3C, 0x00, 0x01, 0x90, 0x34, 0x3B, 0x00, 0x90,
        0x39, 0x49, 0x8F, 0x6A, 0x80, 0x34, 0x00, 0x00, 0x80, 0x39, 0x00, 0x05, 0x90, 0x34, 0x3D, 0x00,
        0x90, 0x38, 0x4B, 0x90, 0x10, 0x80, 0x34, 0x00, 0x00, 0x80, 0x38, 0x00, 0x01, 0x90, 0x38, 0x3B,
        0x00, 0x90, 0x3B, 0x49, 0x8F, 0x6A, 0x80, 0x38, 0x00, 0x00, 0x80, 0x3B, 0x00, 0x05, 0x90, 0x3C,
        0x3D, 0x00, 0x90, 0x40, 0x4B, 0x90, 0x10, 0x80, 0x3C, 0x00, 0x00, 0x80, 0x40, 0x00, 0x01, 0x90,
        0x39, 0x3B, 0x00, 0x90, 0x3C, 0x49, 0x8F, 0x6A, 0x80, 0x39, 0x00, 0x00, 0x80, 0x3C, 0x00, 0x05,
        0x90, 0x3B, 0x3D, 0x00, 0x90, 0x3E, 0x4B, 0x90, 0x10, 0x80, 0x3B, 0x00, 0x00, 0x80, 0x3E, 0x00,
        0x01, 0x90, 0x38, 0x3B, 0x00, 0x90, 0x3B, 0x49, 0x8F, 0x6A, 0x80, 0x38, 0x00, 0x00, 0x80, 0x3B,
        0x00, 0x05, 0x90, 0x39, 0x3D, 0x00, 0x90, 0x3C, 0x4B, 0x88, 0x19, 0x80, 0x39, 0x00, 0x00, 0x80,
        0x3C, 0x00, 0x01, 0x90, 0x3C, 0x39, 0x00, 0x90, 0x40, 0x47, 0x87, 0x76, 0x80, 0x3C, 0x00, 0x00,
        0x80, 0x40, 0x00, 0x01, 0x90, 0x40, 0x3B, 0x00, 0x90, 0x45, 0x49, 0x8F, 0x6A, 0x80, 0x40, 0x00,
        0x00, 0x80, 0x45, 0x00, 0x05, 0x90, 0x40, 0x38, 0x00, 0x90, 0x44, 0x46, 0x9F, 0x7B, 0x80, 0x40,
        0x00, 0x00, 0x80, 0x44, 0x00, 0x1F, 0xFF, 0x2F, 0x00, 0x4D, 0x54, 0x72, 0x6B, 0x00, 0x00, 0x04,
        0x7A, 0x00, 0xFF, 0x09, 0x16, 0x53, 0x6D, 0x61, 0x72, 0x74, 0x4D, 0x75, 0x73, 0x69, 0x63, 0x20,
        0x53, 0x6F, 0x66, 0x74, 0x53, 0x79, 0x6E, 0x74, 0x68, 0x20, 0x31, 0x00, 0xFF, 0x03, 0x0B, 0x49,
        0x6E, 0x73, 0x74, 0x72, 0x75, 0x6D, 0x65, 0x6E, 0x74, 0x32, 0x00, 0xC0, 0x00, 0x00, 0xB0, 0x07,
        0x65, 0x00, 0xB0, 0x0A, 0x40, 0x00, 0xB0, 0x07, 0x66, 0x03, 0xB0, 0x64, 0x00, 0x00, 0xB0, 0x65,
        0x00, 0x01, 0xB0, 0x06, 0x0C, 0x01, 0xB0, 0x26, 0x00, 0x05, 0x90, 0x28, 0x38, 0x84, 0x18, 0x90,
        0x34, 0x34, 0x1E, 0x80, 0x28, 0x00, 0x83, 0x5E, 0x90, 0x28, 0x34, 0x1E, 0x80, 0x34, 0x00, 0x83,
        0x5B, 0x90, 0x34, 0x34, 0x1E, 0x80, 0x28, 0x00, 0x83, 0x60, 0x90, 0x28, 0x36, 0x1E, 0x80, 0x34,
        0x00, 0x83, 0x60, 0x90, 0x34, 0x34, 0x1E, 0x80, 0x28, 0x00, 0x83, 0x5B, 0x90, 0x28, 0x34, 0x1E,
        0x80, 0x34, 0x00, 0x83, 0x5B, 0x90, 0x34, 0x34, 0x1E, 0x80, 0x28, 0x00, 0x83, 0x61, 0x90, 0x2D,
        0x39, 0x1A, 0x80, 0x34, 0x00, 0x84, 0x04, 0x90, 0x39, 0x34, 0x1E, 0x80, 0x2D, 0x00, 0x83, 0x5E,
        0x90, 0x2D, 0x35, 0x1E, 0x80, 0x39, 0x00, 0x83, 0x5B, 0x90, 0x39, 0x34, 0x1E, 0x80, 0x2D, 0x00,
        0x83, 0x60, 0x90, 0x2D, 0x37, 0x1E, 0x80, 0x39, 0x00, 0x83, 0x60, 0x90, 0x39, 0x34, 0x1E, 0x80,
        0x2D, 0x00, 0x83, 0x5B, 0x90, 0x2D, 0x35, 0x1E, 0x80, 0x39, 0x00, 0x83, 0x5B, 0x90, 0x39, 0x34,
        0x1E, 0x80, 0x2D, 0x00, 0x83, 0x61, 0x90, 0x2C, 0x39, 0x1A, 0x80, 0x39, 0x00, 0x84, 0x04, 0x90,
        0x38, 0x34, 0x1E, 0x80, 0x2C, 0x00, 0x83, 0x5E, 0x90, 0x2C, 0x35, 0x1E, 0x80, 0x38, 0x00, 0x83,
        0x5B, 0x90, 0x38, 0x34, 0x1E, 0x80, 0x2C, 0x00, 0x83, 0x60, 0x90, 0x28, 0x36, 0x1E, 0x80, 0x38,
        0x00, 0x83, 0x60, 0x90, 0x34, 0x34, 0x1E, 0x80, 0x28, 0x00, 0x83, 0x5B, 0x90, 0x28, 0x34, 0x1E,
        0x80, 0x34, 0x00, 0x83, 0x5B, 0x90, 0x34, 0x34, 0x1E, 0x80, 0x28, 0x00, 0x83, 0x61, 0x90, 0x2D,
        0x39, 0x1A, 0x80, 0x34, 0x00, 0x84, 0x04, 0x90, 0x39, 0x34, 0x1E, 0x80, 0x2D, 0x00, 0x83, 0x5E,
        0x90, 0x2D, 0x35, 0x1E, 0x80, 0x39, 0x00, 0x83, 0x5B, 0x90, 0x39, 0x34, 0x1E, 0x80, 0x2D, 0x00,
        0x83, 0x60, 0x90, 0x2D, 0x37, 0x1E, 0x80, 0x39, 0x00, 0x83, 0x60, 0x90, 0x39, 0x34, 0x1E, 0x80,
        0x2D, 0x00, 0x83, 0x5B, 0x90, 0x2F, 0x35, 0x1E, 0x80, 0x39, 0x00, 0x83, 0x5B, 0x90, 0x30, 0x34,
        0x1E, 0x80, 0x2F, 0x00, 0x83, 0x61, 0x90, 0x32, 0x39, 0x1A, 0x80, 0x30, 0x00, 0x84, 0x04, 0x90,
        0x26, 0x33, 0x1E, 0x80, 0x32, 0x00, 0x83, 0x7C, 0x80, 0x26, 0x00, 0x83, 0x5B, 0x90, 0x26, 0x33,
        0x84, 0x1C, 0x80, 0x26, 0x00, 0x83, 0x60, 0x90, 0x26, 0x33, 0x83, 0x79, 0x90, 0x2D, 0x35, 0x1E,
        0x80, 0x26, 0x00, 0x83, 0x5B, 0x90, 0x29, 0x34, 0x1E, 0x80, 0x2D, 0x00, 0x83, 0x61, 0x90, 0x24,
        0x37, 0x1A, 0x80, 0x29, 0x00, 0x84, 0x04, 0x90, 0x30, 0x34, 0x1E, 0x80, 0x24, 0x00, 0x83, 0x7C,
        0x80, 0x30, 0x00, 0x83, 0x5B, 0x90, 0x30, 0x34, 0x83, 0x7E, 0x90, 0x24, 0x35, 0x1E, 0x80, 0x30,
        0x00, 0x83, 0x60, 0x90, 0x2B, 0x34, 0x1E, 0x80, 0x24, 0x00, 0x83, 0x79, 0x80, 0x2B, 0x00, 0x83,
        0x5B, 0x90, 0x2B, 0x34, 0x83, 0x7F, 0x90, 0x2F, 0x39, 0x1A, 0x80, 0x2B, 0x00, 0x84, 0x04, 0x90,
        0x3B, 0x34, 0x1E, 0x80, 0x2F, 0x00, 0x83, 0x7C, 0x80, 0x3B, 0x00, 0x83, 0x5B, 0x90, 0x3B, 0x34,
        0x84, 0x1C, 0x80, 0x3B, 0x00, 0x83, 0x60, 0x90, 0x34, 0x34, 0x84, 0x17, 0x80, 0x34, 0x00, 0x83,
        0x5B, 0x90, 0x38, 0x34, 0x83, 0x7F, 0x90, 0x2D, 0x39, 0x1A, 0x80, 0x38, 0x00, 0x84, 0x04, 0x90,
        0x34, 0x34, 0x1E, 0x80, 0x2D, 0x00, 0x83, 0x5E, 0x90, 0x2D, 0x35, 0x1E, 0x80, 0x34, 0x00, 0x83,
        0x5B, 0x90, 0x34, 0x34, 0x1E, 0x80, 0x2D, 0x00, 0x83, 0x60, 0x90, 0x2D, 0x43, 0x1E, 0x80, 0x34,
        0x00, 0x87, 0x58, 0x80, 0x2D, 0x00, 0x87, 0x79, 0x90, 0x2D, 0x39, 0x84, 0x1E, 0x90, 0x34, 0x34,
        0x1E, 0x80, 0x2D, 0x00, 0x83, 0x5E, 0x90, 0x2D, 0x35, 0x1E, 0x80, 0x34, 0x00, 0x83, 0x5B, 0x90,
        0x34, 0x34, 0x1E, 0x80, 0x2D, 0x00, 0x83, 0x60, 0x90, 0x2D, 0x37, 0x1E, 0x80, 0x34, 0x00, 0x83,
        0x60, 0x90, 0x34, 0x34, 0x1E, 0x80, 0x2D, 0x00, 0x83, 0x5B, 0x90, 0x2D, 0x35, 0x1E, 0x80, 0x34,
        0x00, 0x83, 0x5B, 0x90, 0x34, 0x34, 0x1E, 0x80, 0x2D, 0x00, 0x83, 0x61, 0x90, 0x2C, 0x39, 0x1A,
        0x80, 0x34, 0x00, 0x84, 0x04, 0x90, 0x34, 0x34, 0x1E, 0x80, 0x2C, 0x00, 0x83, 0x5E, 0x90, 0x2C,
        0x35, 0x1E, 0x80, 0x34, 0x00, 0x83, 0x5B, 0x90, 0x34, 0x34, 0x1E, 0x80, 0x2C, 0x00, 0x83, 0x60,
        0x90, 0x2C, 0x37, 0x1E, 0x80, 0x34, 0x00, 0x83, 0x60, 0x90, 0x34, 0x34, 0x1E, 0x80, 0x2C, 0x00,
        0x83, 0x5B, 0x90, 0x2C, 0x35, 0x1E, 0x80, 0x34, 0x00, 0x83, 0x5B, 0x90, 0x34, 0x34, 0x1E, 0x80,
        0x2C, 0x00, 0x83, 0x61, 0x90, 0x2D, 0x39, 0x1A, 0x80, 0x34, 0x00, 0x84, 0x04, 0x90, 0x34, 0x34,
        0x1E, 0x80, 0x2D, 0x00, 0x83, 0x5E, 0x90, 0x2D, 0x35, 0x1E, 0x80, 0x34, 0x00, 0x83, 0x5B, 0x90,
        0x34, 0x34, 0x1E, 0x80, 0x2D, 0x00, 0x83, 0x60, 0x90, 0x2D, 0x37, 0x1E, 0x80, 0x34, 0x00, 0x83,
        0x60, 0x90, 0x34, 0x34, 0x1E, 0x80, 0x2D, 0x00, 0x83, 0x5B, 0x90, 0x2D, 0x35, 0x1E, 0x80, 0x34,
        0x00, 0x83, 0x5B, 0x90, 0x34, 0x34, 0x1E, 0x80, 0x2D, 0x00, 0x83, 0x61, 0x90, 0x2C, 0x39, 0x1A,
        0x80, 0x34, 0x00, 0x84, 0x04, 0x90, 0x34, 0x34, 0x1E, 0x80, 0x2C, 0x00, 0x83, 0x5E, 0x90, 0x2C,
        0x35, 0x1E, 0x80, 0x34, 0x00, 0x83, 0x5B, 0x90, 0x34, 0x34, 0x1E, 0x80, 0x2C, 0x00, 0x83, 0x60,
        0x90, 0x2C, 0x37, 0x1E, 0x80, 0x34, 0x00, 0x83, 0x60, 0x90, 0x34, 0x34, 0x1E, 0x80, 0x2C, 0x00,
        0x83, 0x5B, 0x90, 0x2C, 0x35, 0x1E, 0x80, 0x34, 0x00, 0x83, 0x5B, 0x90, 0x34, 0x34, 0x1E, 0x80,
        0x2C, 0x00, 0x83, 0x61, 0x90, 0x2D, 0x39, 0x1A, 0x80, 0x34, 0x00, 0x84, 0x04, 0x90, 0x34, 0x34,
        0x1E, 0x80, 0x2D, 0x00, 0x83, 0x5E, 0x90, 0x2D, 0x35, 0x1E, 0x80, 0x34, 0x00, 0x83, 0x5B, 0x90,
        0x34, 0x34, 0x1E, 0x80, 0x2D, 0x00, 0x83, 0x60, 0x90, 0x2D, 0x37, 0x1E, 0x80, 0x34, 0x00, 0x83,
        0x60, 0x90, 0x34, 0x34, 0x1E, 0x80, 0x2D, 0x00, 0x83, 0x5B, 0x90, 0x2D, 0x35, 0x1E, 0x80, 0x34,
        0x00, 0x83, 0x5B, 0x90, 0x34, 0x34, 0x1E, 0x80, 0x2D, 0x00, 0x83, 0x61, 0x90, 0x2C, 0x39, 0x1A,
        0x80, 0x34, 0x00, 0x84, 0x04, 0x90, 0x34, 0x34, 0x1E, 0x80, 0x2C, 0x00, 0x83, 0x5E, 0x90, 0x2C,
        0x35, 0x1E, 0x80, 0x34, 0x00, 0x83, 0x5B, 0x90, 0x34, 0x34, 0x1E, 0x80, 0x2C, 0x00, 0x83, 0x60,
        0x90, 0x2C, 0x37, 0x1E, 0x80, 0x34, 0x00, 0x83, 0x60, 0x90, 0x34, 0x34, 0x1E, 0x80, 0x2C, 0x00,
        0x83, 0x5B, 0x90, 0x2C, 0x35, 0x1E, 0x80, 0x34, 0x00, 0x83, 0x5B, 0x90, 0x34, 0x34, 0x1E, 0x80,
        0x2C, 0x00, 0x83, 0x61, 0x90, 0x2D, 0x39, 0x1A, 0x80, 0x34, 0x00, 0x84, 0x04, 0x90, 0x34, 0x34,
        0x1E, 0x80, 0x2D, 0x00, 0x83, 0x5E, 0x90, 0x2D, 0x35, 0x1E, 0x80, 0x34, 0x00, 0x83, 0x5B, 0x90,
        0x34, 0x34, 0x1E, 0x80, 0x2D, 0x00, 0x83, 0x60, 0x90, 0x2D, 0x37, 0x1E, 0x80, 0x34, 0x00, 0x83,
        0x60, 0x90, 0x34, 0x34, 0x1E, 0x80, 0x2D, 0x00, 0x83, 0x5B, 0x90, 0x2D, 0x35, 0x1E, 0x80, 0x34,
        0x00, 0x83, 0x5B, 0x90, 0x34, 0x34, 0x1E, 0x80, 0x2D, 0x00, 0x83, 0x61, 0x90, 0x2C, 0x39, 0x1A,
        0x80, 0x34, 0x00, 0x84, 0x04, 0x90, 0x34, 0x34, 0x1E, 0x80, 0x2C, 0x00, 0x83, 0x5E, 0x90, 0x2C,
        0x35, 0x1E, 0x80, 0x34, 0x00, 0x83, 0x5B, 0x90, 0x34, 0x34, 0x1E, 0x80, 0x2C, 0x00, 0x83, 0x60,
        0x90, 0x2C, 0x37, 0x1E, 0x80, 0x34, 0x00, 0x83, 0x60, 0x90, 0x34, 0x34, 0x1E, 0x80, 0x2C, 0x00,
        0x83, 0x5B, 0x90, 0x2C, 0x35, 0x1E, 0x80, 0x34, 0x00, 0x83, 0x5B, 0x90, 0x34, 0x34, 0x1E, 0x80,
        0x2C, 0x00, 0x83, 0x7B, 0x80, 0x34, 0x00, 0x00, 0xFF, 0x2F, 0x00,
};
